HIERARCHY
ROOT Hips
{
	OFFSET 0.00 0.00 0.00
	CHANNELS 6 Xposition Yposition Zposition Xrotation Yrotation Zrotation
	JOINT Spine
	{
		OFFSET 0.00000 7.06766 0.00000
		CHANNELS 3 Xrotation Yrotation Zrotation
		JOINT Head
		{
			OFFSET 0.00000 15.03989 0.00000
			CHANNELS 3 Xrotation Yrotation Zrotation
			End Site
			{
				OFFSET 0.00000 4.52755 0.00000
			}
		}
		JOINT LeftShoulder
		{
			OFFSET 0.00000 10.53037 0.00000
			CHANNELS 3 Xrotation Yrotation Zrotation
			JOINT LeftArm
			{
				OFFSET 7.02886 0.00000 0.00000
				CHANNELS 3 Xrotation Yrotation Zrotation
				JOINT LeftForeArm
				{
					OFFSET 10.79770 0.00000 0.00000
					CHANNELS 3 Yrotation Zrotation Xrotation
					JOINT LeftHand
					{
						OFFSET 7.90744 0.00000 0.00000
						CHANNELS 3 Xrotation Yrotation Zrotation
						JOINT LeftHandThumb1
						{
							OFFSET 0.00000 0.00000 0.00000
							CHANNELS 3 Xrotation Zrotation Yrotation
							End Site
							{
								OFFSET 0.00000 0.00000 3.93700
							}
						}
						End Site
						{
							OFFSET 3.93700 0.00000 0.00000
						}
					}
				}
			}
		}
		JOINT RightShoulder
		{
			OFFSET 0.00000 10.53037 0.00000
			CHANNELS 3 Xrotation Yrotation Zrotation
			JOINT RightArm
			{
				OFFSET -7.02886 0.00000 0.00000
				CHANNELS 3 Xrotation Yrotation Zrotation
				JOINT RightForeArm
				{
					OFFSET -10.79770 0.00000 0.00000
					CHANNELS 3 Yrotation Zrotation Xrotation
					JOINT RightHand
					{
						OFFSET -7.90744 0.00000 0.00000
						CHANNELS 3 Xrotation Yrotation Zrotation
						JOINT RightHandThumb1
						{
							OFFSET 0.00000 0.00000 0.00000
							CHANNELS 3 Xrotation Zrotation Yrotation
							End Site
							{
								OFFSET 0.00000 0.00000 3.93700
							}
						}
						End Site
						{
							OFFSET -3.93700 0.00000 0.00000
						}
					}
				}
			}
		}
	}
	JOINT LeftUpLeg
	{
		OFFSET 4.01300 0.00000 0.00000
		CHANNELS 3 Xrotation Yrotation Zrotation
		JOINT LeftLeg
		{
			OFFSET 0.00000 -16.89976 0.00000
			CHANNELS 3 Xrotation Yrotation Zrotation
			JOINT LeftFoot
			{
				OFFSET 0.00000 -17.38918 0.00000
				CHANNELS 3 Xrotation Yrotation Zrotation
				JOINT LeftToeBase
				{
					OFFSET 0.00000 -1.27456 4.75673
					CHANNELS 3 Xrotation Yrotation Zrotation
					End Site
					{
						OFFSET 0.00000 0.00000 2.95275
					}
				}
			}
		}
	}
	JOINT RightUpLeg
	{
		OFFSET -4.01300 0.00000 0.00000
		CHANNELS 3 Xrotation Yrotation Zrotation
		JOINT RightLeg
		{
			OFFSET 0.00000 -16.89976 0.00000
			CHANNELS 3 Xrotation Yrotation Zrotation
			JOINT RightFoot
			{
				OFFSET 0.00000 -17.38918 0.00000
				CHANNELS 3 Xrotation Yrotation Zrotation
				JOINT RightToeBase
				{
					OFFSET 0.00000 -1.27456 4.75673
					CHANNELS 3 Xrotation Yrotation Zrotation
					End Site
					{
						OFFSET 0.00000 0.00000 2.95275
					}
				}
			}
		}
	}
}
MOTION
Frames: 19
Frame Time: 0.008333
 18.3983 35.5201 -20.2331 170.2334 -0.5186 178.9276 -18.0969 0.8624 0.6030 8.6552 -1.0799 0.0848 -34.6876 0.4538 15.7327 6.2798 -1.0026 -10.7257 2.4139 0.0000 9.7709 0.7083 7.2011 -5.6326 33.1476 -0.0000 26.2537 3.6111 -12.1362 -10.8965 -33.5214 -0.5961 11.9863 3.9866 -0.0000 35.8911 0.9170 -5.8974 8.8544 32.8623 0.0000 -24.3270 -1.5396 9.1744 -0.3646 -5.5829 -0.0000 -0.0000 -20.0011 28.1372 5.3403 26.7004 0.0000 -0.0000 -2.9691 -5.4217 1.1454 -2.6996 0.0000 0.0000 -19.7008 -29.9884 -5.7375 24.1639 0.0000 -0.0000
 18.3979 35.5203 -20.2302 170.2539 -0.5463 178.9282 -18.0751 0.8410 0.5995 8.6484 -1.0928 0.0954 -34.6718 0.4487 15.7297 6.2666 -1.0044 -10.7335 2.4068 0.0000 9.7729 0.7065 7.1979 -5.6207 33.1476 -0.0000 26.2537 3.5962 -12.1292 -10.9039 -33.5335 -0.6013 12.0014 3.9760 -0.0000 35.8715 0.9168 -5.9044 8.8424 32.8623 0.0000 -24.3270 -1.5291 9.1748 -0.3668 -5.5829 0.0000 0.0000 -19.9905 28.1296 5.3392 26.4935 0.0000 -0.0000 -2.9473 -5.4505 1.1434 -2.7041 0.0000 0.0000 -19.7077 -29.9905 -5.7480 24.1804 0.0000 -0.0000
 18.3984 35.5207 -20.2266 170.2612 -0.5611 178.9262 -18.0701 0.8431 0.5976 8.6485 -1.1022 0.1126 -34.6744 0.4291 15.7262 6.2687 -1.0155 -10.7453 2.4103 0.0000 9.7751 0.7078 7.2250 -5.6104 33.1476 -0.0000 26.2537 3.4635 -12.1117 -10.8995 -33.3865 -0.5653 11.9768 3.9428 -0.0000 35.8431 0.9031 -5.8391 8.8080 32.8623 0.0000 -24.3270 -1.5340 9.1676 -0.3655 -5.5707 -0.0000 0.0000 -19.9900 28.1141 5.3242 26.7044 -0.0000 0.0000 -2.9487 -5.4664 1.1448 -2.6947 -0.0000 0.0000 -19.7125 -29.9718 -5.7660 24.2273 0.0000 -0.0000
 18.3986 35.5216 -20.2227 170.2688 -0.5760 178.9274 -18.0630 0.8392 0.6014 8.6479 -1.1215 0.0965 -34.6600 0.4212 15.7054 6.2859 -1.0193 -10.7415 2.4097 0.0000 9.7078 0.7049 7.2118 -5.5975 33.1476 -0.0000 26.2537 3.4498 -12.0999 -10.8931 -33.3543 -0.5561 11.9722 3.9040 -0.0000 35.8287 0.9154 -6.0261 8.6538 32.8623 0.0000 -24.3270 -1.5338 9.1476 -0.3661 -5.5710 0.0000 -0.0000 -19.9774 28.1134 5.3286 26.7169 0.0000 -0.0000 -2.9482 -5.4617 1.1428 -2.6901 -0.0000 -0.0000 -19.6941 -30.0057 -5.7331 24.1536 0.0000 -0.0000
 18.3992 35.5220 -20.2193 170.2751 -0.5873 178.9242 -18.0545 0.8362 0.5974 8.6263 -1.1330 0.1255 -34.6587 0.4082 15.7220 6.2749 -1.0248 -10.7709 2.4095 0.0000 9.6971 0.7032 7.2270 -5.5721 33.1476 -0.0000 26.2537 3.4449 -12.1066 -10.8944 -33.3650 -0.5663 11.9990 3.9068 -0.0000 35.7981 0.8992 -5.9322 8.6348 32.8623 0.0000 -24.3270 -1.5377 9.1527 -0.3611 -5.5665 -0.0000 0.0000 -19.9711 28.1013 5.2998 26.7226 0.0000 -0.0000 -2.9457 -5.4747 1.1448 -2.6895 0.0000 -0.0000 -19.7004 -29.9898 -5.7493 24.2178 0.0000 -0.0000
 18.3993 35.5226 -20.2150 170.2800 -0.6041 178.9219 -18.0499 0.8312 0.5957 8.6152 -1.1495 0.1401 -34.6426 0.3936 15.7219 6.2441 -1.0166 -10.7879 2.4029 0.0000 9.6776 0.7022 7.2255 -5.5658 33.1476 -0.0000 26.2537 3.4090 -12.1149 -10.8942 -33.3552 -0.5533 12.0192 3.8896 -0.0000 35.7645 0.8907 -5.8591 8.6596 32.8623 0.0000 -24.3270 -1.5432 9.1476 -0.3607 -5.5654 0.0000 0.0000 -19.9565 28.0927 5.3095 26.6929 0.0000 0.0000 -2.9489 -5.4832 1.1458 -2.6823 -0.0000 0.0000 -19.6952 -29.9980 -5.7477 24.1812 0.0000 -0.0000
 18.3978 35.5234 -20.2110 170.2887 -0.6027 178.9253 -18.0408 0.8283 0.6018 8.6106 -1.1765 0.1386 -34.6563 0.3859 15.7211 6.2411 -1.0033 -10.8023 2.4042 0.0000 9.6620 0.6964 7.2168 -5.5266 33.1476 -0.0000 26.2537 3.4115 -12.1107 -10.8909 -33.3556 -0.5329 12.0323 3.8782 -0.0000 35.7199 0.9039 -5.9365 8.6734 32.8623 0.0000 -24.3270 -1.5503 9.1526 -0.3637 -5.5429 -0.0000 -0.0000 -19.9566 28.0782 5.3023 26.7419 -0.0000 -0.0000 -2.9515 -5.4567 1.1385 -2.6769 -0.0000 -0.0000 -19.6961 -30.0255 -5.7499 24.2263 0.0000 0.0000
 18.3986 35.5239 -20.2071 170.2942 -0.6066 178.9234 -18.0424 0.8291 0.6053 8.6266 -1.1994 0.1318 -34.6465 0.3701 15.7041 6.2455 -0.9981 -10.7962 2.4086 0.0000 9.6129 0.6972 7.2219 -5.5295 33.1476 -0.0000 26.2537 3.4425 -12.1549 -10.8769 -33.3699 -0.4677 12.0725 3.8513 -0.0000 35.6800 0.9029 -5.9018 8.7136 32.8623 0.0000 -24.3270 -1.5438 9.1707 -0.3639 -5.5630 -0.0000 -0.0000 -19.9381 28.0690 5.3127 26.7104 0.0000 -0.0000 -2.9548 -5.4518 1.1421 -2.6709 0.0000 -0.0000 -19.6796 -30.0262 -5.7296 24.1574 0.0000 -0.0000
 18.3998 35.5246 -20.2036 170.3013 -0.6081 178.9223 -18.0385 0.8416 0.6072 8.6332 -1.2099 0.1371 -34.6458 0.3508 15.6940 6.1881 -0.9865 -10.8051 2.4194 0.0000 9.6390 0.6959 7.2158 -5.5238 33.1476 -0.0000 26.2537 3.5076 -12.1923 -10.8556 -33.4333 -0.4331 12.1013 3.8216 -0.0000 35.6615 0.9235 -6.0616 8.6795 32.8623 0.0000 -24.3270 -1.5372 9.1759 -0.3625 -5.5756 -0.0000 0.0000 -19.9124 28.0729 5.2863 26.6789 0.0000 -0.0000 -2.9532 -5.4413 1.1448 -2.6706 -0.0000 -0.0000 -19.6857 -30.0424 -5.7504 24.2074 -0.0000 -0.0000
 18.4006 35.5251 -20.2005 170.3033 -0.6214 178.9207 -18.0424 0.8435 0.6031 8.6385 -1.2284 0.1486 -34.6450 0.3329 15.6974 6.1880 -0.9930 -10.8309 2.4247 0.0000 9.5917 0.6929 7.2277 -5.4907 33.1476 -0.0000 26.2537 3.4940 -12.2010 -10.8551 -33.4503 -0.4503 12.1253 3.8371 -0.0000 35.6617 0.9069 -5.9528 8.6785 32.8623 0.0000 -24.3270 -1.5429 9.1737 -0.3607 -5.5744 0.0000 -0.0000 -19.9097 28.0605 5.3029 26.7555 0.0000 0.0000 -2.9506 -5.4366 1.1459 -2.6779 -0.0000 0.0000 -19.6774 -30.0492 -5.7395 24.2207 0.0000 -0.0000
 18.4016 35.5255 -20.1973 170.3065 -0.6314 178.9205 -18.0431 0.8474 0.5996 8.6414 -1.2443 0.1600 -34.6597 0.3033 15.6924 6.1793 -0.9787 -10.8444 2.4381 0.0000 9.5583 0.6907 7.2060 -5.4897 33.1476 -0.0000 26.2537 3.4574 -12.1826 -10.8632 -33.4110 -0.4796 12.1288 3.8260 -0.0000 35.6490 0.8950 -5.8797 8.6711 32.8623 0.0000 -24.3270 -1.5427 9.1821 -0.3607 -5.5835 0.0000 0.0000 -19.8835 28.0452 5.2902 26.6878 -0.0000 0.0000 -2.9508 -5.4354 1.1479 -2.6799 -0.0000 0.0000 -19.6724 -30.0610 -5.7407 24.2052 0.0000 -0.0000
 18.4023 35.5261 -20.1946 170.3102 -0.6546 178.9190 -18.0474 0.8332 0.5958 8.6475 -1.2674 0.1611 -34.6705 0.2715 15.6874 6.1787 -0.9509 -10.8610 2.4393 0.0000 9.5240 0.6902 7.2247 -5.4722 33.1476 -0.0000 26.2537 3.4471 -12.1740 -10.8640 -33.4382 -0.5014 12.1425 3.8165 -0.0000 35.6674 0.8988 -5.9059 8.6693 32.8623 0.0000 -24.3270 -1.5452 9.1790 -0.3598 -5.5875 0.0000 0.0000 -19.8695 28.0403 5.2756 26.7148 0.0000 -0.0000 -2.9439 -5.4654 1.1495 -2.6869 0.0000 -0.0000 -19.6595 -30.0594 -5.7356 24.1628 0.0000 -0.0000
 18.4031 35.5263 -20.1911 170.3098 -0.6534 178.9170 -18.0527 0.8386 0.5965 8.6261 -1.2775 0.1947 -34.6682 0.2498 15.6970 6.1500 -0.9282 -10.8896 2.4545 0.0000 9.4947 0.6863 7.1981 -5.4608 33.1476 -0.0000 26.2537 3.4181 -12.1643 -10.8751 -33.4323 -0.5297 12.1737 3.8356 -0.0000 35.6748 0.9118 -5.9435 8.7381 32.8623 0.0000 -24.3270 -1.5419 9.1496 -0.3560 -5.6044 0.0000 0.0000 -19.8586 28.0553 5.2844 26.6905 0.0000 -0.0000 -2.9478 -5.4484 1.1531 -2.6915 0.0000 0.0000 -19.6569 -30.0788 -5.7299 24.1802 0.0000 0.0000
 18.4040 35.5270 -20.1878 170.3123 -0.6576 178.9152 -18.0576 0.8466 0.5963 8.6375 -1.2978 0.2065 -34.6636 0.2191 15.6918 6.1141 -0.8966 -10.9108 2.4633 0.0000 9.4584 0.6833 7.1931 -5.4406 33.1476 -0.0000 26.2537 3.4375 -12.1564 -10.8636 -33.4520 -0.5579 12.1783 3.8303 -0.0000 35.6471 0.9072 -5.9561 8.6761 32.8623 0.0000 -24.3270 -1.5521 9.1846 -0.3554 -5.5954 0.0000 0.0000 -19.8558 28.0375 5.2679 26.6895 0.0000 -0.0000 -2.9472 -5.4364 1.1554 -2.6964 -0.0000 -0.0000 -19.6530 -30.0840 -5.7425 24.2080 0.0000 -0.0000
 18.4045 35.5277 -20.1849 170.3160 -0.6706 178.9174 -18.0627 0.8318 0.5918 8.6615 -1.2995 0.1972 -34.7121 0.1588 15.6740 6.1568 -0.8257 -10.8944 2.4653 0.0000 9.5033 0.7003 7.1988 -5.5709 33.1476 -0.0000 26.2537 3.4372 -12.1479 -10.8647 -33.5169 -0.5860 12.2035 3.8338 -0.0000 35.6999 0.9053 -5.9499 8.6679 32.8623 0.0000 -24.3270 -1.5488 9.1735 -0.3582 -5.6056 -0.0000 0.0000 -19.8343 28.0376 5.2641 26.7355 0.0000 -0.0000 -2.9434 -5.4512 1.1537 -2.7044 0.0000 -0.0000 -19.6381 -30.0934 -5.7444 24.1709 0.0000 -0.0000
 18.4045 35.5279 -20.1820 170.3182 -0.6792 178.9187 -18.0666 0.8279 0.5908 8.6700 -1.2949 0.1934 -34.7013 0.1415 15.6749 6.1145 -0.8038 -10.9208 2.4865 0.0000 9.4901 0.7028 7.2074 -5.5843 33.1476 -0.0000 26.2537 3.4225 -12.1390 -10.8607 -33.5230 -0.5930 12.2077 3.7952 -0.0000 35.7280 0.8935 -5.9004 8.6269 32.8623 0.0000 -24.3270 -1.5491 9.1706 -0.3606 -5.6094 0.0000 -0.0000 -19.8206 28.0294 5.2613 26.7269 0.0000 -0.0000 -2.9420 -5.4608 1.1536 -2.7100 -0.0000 0.0000 -19.6337 -30.0958 -5.7340 24.1821 -0.0000 0.0000
 18.4062 35.5286 -20.1777 170.3139 -0.6845 178.9144 -18.0737 0.8230 0.5865 8.6657 -1.2963 0.2215 -34.7142 0.1123 15.6804 6.1197 -0.7661 -10.9420 2.4846 0.0000 9.4644 0.7045 7.2217 -5.5871 33.1476 -0.0000 26.2537 3.4187 -12.1406 -10.8500 -33.5381 -0.5976 12.2380 3.8028 -0.0000 35.6343 0.8953 -5.9613 8.5573 32.8623 0.0000 -24.3270 -1.5671 9.1953 -0.3527 -5.6044 0.0000 0.0000 -19.8023 28.0062 5.2495 26.4319 -0.0000 0.0000 -2.9491 -5.4338 1.1581 -2.7158 -0.0000 -0.0000 -19.6268 -30.1421 -5.7459 24.1154 -0.0000 0.0000
 18.4071 35.5290 -20.1734 170.3091 -0.6767 178.9116 -18.0798 0.8347 0.5872 8.6578 -1.2903 0.2403 -34.7193 0.0879 15.6867 6.0894 -0.7366 -10.9685 2.4946 0.0000 9.4681 0.7104 7.2497 -5.6114 33.1476 -0.0000 26.2537 3.4020 -12.1352 -10.8441 -33.5728 -0.6352 12.2463 3.8400 -0.0000 35.6577 0.9082 -5.9755 8.6585 32.8623 0.0000 -24.3270 -1.5800 9.2179 -0.3484 -5.6046 -0.0000 -0.0000 -19.8016 28.0083 5.2429 26.4621 -0.0000 0.0000 -2.9668 -5.4192 1.1618 -2.7076 0.0000 0.0000 -19.6200 -30.1239 -5.7348 24.1548 0.0000 -0.0000
 18.4084 35.5298 -20.1705 170.3047 -0.7139 178.9079 -18.0945 0.8070 0.5785 8.6602 -1.2876 0.2502 -34.7108 0.0683 15.6735 6.0650 -0.7098 -10.9795 2.4993 0.0000 9.4635 0.7153 7.2736 -5.6320 33.1476 -0.0000 26.2537 3.4013 -12.1344 -10.8423 -33.5985 -0.6631 12.2674 3.8431 -0.0000 35.6475 0.9069 -5.9662 8.6594 32.8623 0.0000 -24.3270 -1.5999 9.1715 -0.3416 -5.5869 -0.0000 0.0000 -19.7963 27.9851 5.2392 26.6949 0.0000 -0.0000 -2.9643 -5.4563 1.1664 -2.7189 -0.0000 0.0000 -19.6155 -30.1565 -5.7325 24.0716 0.0000 -0.0000
